<?xml version="1.0" encoding="utf-8"?>
<!-- Generator: Adobe Illustrator 19.0.0, SVG Export Plug-In . SVG Version: 6.00 Build 0)  -->
<svg version="1.1" id="Layer_1" xmlns="http://www.w3.org/2000/svg" xmlns:xlink="http://www.w3.org/1999/xlink" x="0px" y="0px"
	 width="500px" height="500px" viewBox="0 0 500 500" style="enable-background:new 0 0 500 500;" xml:space="preserve">
<style type="text/css">
	.st0{fill:none;}
	.st1{fill-rule:evenodd;clip-rule:evenodd;fill:#772122;}
	.st2{fill:#FFF000;}
	.st3{fill-rule:evenodd;clip-rule:evenodd;fill:#FF0000;}
	.st4{fill:url(#XMLID_7_);}
	.st5{fill:url(#XMLID_10_);}
	.st6{fill-rule:evenodd;clip-rule:evenodd;fill:url(#XMLID_11_);}
	.st7{fill:url(#XMLID_12_);}
	.st8{fill:url(#XMLID_13_);}
	.st9{fill:url(#XMLID_16_);}
	.st10{fill:url(#XMLID_17_);}
	.st11{fill:url(#XMLID_18_);}
	.st12{fill:#FFFFFF;}
	.st13{fill:url(#XMLID_27_);}
	.st14{fill:url(#XMLID_28_);stroke:url(#XMLID_29_);stroke-width:0.62;stroke-miterlimit:10;}
	.st15{fill-rule:evenodd;clip-rule:evenodd;fill:url(#XMLID_30_);}
	.st16{fill-rule:evenodd;clip-rule:evenodd;fill:url(#XMLID_35_);}
	.st17{fill-rule:evenodd;clip-rule:evenodd;fill:url(#XMLID_70_);}
	.st18{fill-rule:evenodd;clip-rule:evenodd;fill:url(#XMLID_305_);}
	.st19{fill-rule:evenodd;clip-rule:evenodd;fill:url(#XMLID_306_);}
	.st20{fill-rule:evenodd;clip-rule:evenodd;fill:url(#XMLID_307_);}
	.st21{fill-rule:evenodd;clip-rule:evenodd;fill:url(#XMLID_308_);}
	.st22{fill:url(#XMLID_309_);}
	.st23{fill:url(#XMLID_310_);}
	.st24{fill:url(#XMLID_311_);}
	.st25{fill:url(#XMLID_312_);}
	.st26{fill:url(#XMLID_313_);}
	.st27{fill:url(#XMLID_314_);}
	.st28{fill:url(#XMLID_315_);}
	.st29{fill:url(#XMLID_316_);}
	.st30{fill:url(#XMLID_317_);}
	.st31{fill:url(#XMLID_318_);}
	.st32{fill-rule:evenodd;clip-rule:evenodd;fill:#FFFFFF;}
	.st33{fill:url(#XMLID_319_);}
</style>
<pattern  width="5.4" height="8.4" patternUnits="userSpaceOnUse" id="New_Pattern_Swatch_1" viewBox="0 -8.4 5.4 8.4" style="overflow:visible;">
	<g>
		<polygon class="st0" points="0,0 5.4,0 5.4,-8.4 0,-8.4 		"/>
		<polygon class="st1" points="5.4,0 0,0 0,-8.4 5.4,-8.4 		"/>
	</g>
</pattern>
<pattern  width="54" height="69" patternUnits="userSpaceOnUse" id="New_Pattern_Swatch_3" viewBox="0 -69 54 69" style="overflow:visible;">
	<g>
		<polygon class="st0" points="0,0 54,0 54,-69 0,-69 		"/>
		<polygon class="st2" points="54,0 0,0 0,-69 54,-69 		"/>
	</g>
</pattern>
<pattern  width="30.5" height="153" patternUnits="userSpaceOnUse" id="New_Pattern_Swatch_9" viewBox="0 -153 30.5 153" style="overflow:visible;">
	<g>
		<polygon class="st0" points="0,0 30.5,0 30.5,-153 0,-153 		"/>
		<polygon points="30.5,0 0,0 0,-153 30.5,-153 		"/>
	</g>
</pattern>
<g>
	<g>
		<path id="XMLID_295_" class="st1" d="M250.1,0c0.7-0.2,0.8,0.3,0.8,0.8c0.1,16.3,0,38.8,0,55.7c0,5.2,1.5,11.9-3.4,14.4
			c-3-9.3-1.7-22.4-1.7-34.6c0-5.9,0-12,0-17.7c0-5.8-1.4-11.9,1.7-16.1C247,0.3,249.3,0.9,250.1,0z"/>
		<path id="XMLID_294_" class="st1" d="M224,2.6c2.1-0.1,2.6,1.3,3.4,2.5c0.1,2.1-1.3,2.6-2.5,3.4c-2.1,0.1-2.6-1.3-3.4-2.5
			C221.4,3.8,222.8,3.3,224,2.6z"/>
		<path id="XMLID_293_" class="st1" d="M274.5,2.6c2.1-0.1,2.6,1.3,3.4,2.5c0.1,2.1-1.3,2.6-2.5,3.4c-2.1,0.1-2.6-1.3-3.4-2.5
			C271.8,3.8,273.3,3.3,274.5,2.6z"/>
		<path id="XMLID_292_" class="st1" d="M214.8,90.4c-5.3-28.1-12.3-55-16-82.8c1.1-0.9,3.1-0.8,4.2-1.7c0.7-0.1,0.8,0.3,0.8,0.8
			c3.4,20.3,9.1,44,13.5,65C218.5,77.6,222.8,88.2,214.8,90.4z"/>
		<path id="XMLID_291_" class="st1" d="M302.3,6.8c-2.1,17.9-7.4,38.4-11.8,56.6c-2.3,9.7-4.8,20.1-6.7,29.6
			c-1.8,8.8-0.9,20.1-9.3,24.5c0.1-18.2,7-35.6,10.9-54c3.9-18.5,6.5-37.6,11.8-55.7C299.8,8.2,299.7,6.2,302.3,6.8z"/>
		<path id="XMLID_290_" class="st1" d="M176.9,11c2.1-0.1,2.6,1.3,3.4,2.5c0.1,2.1-1.3,2.6-2.5,3.4c-2.1,0.1-2.6-1.3-3.4-2.5
			C174.2,12.3,175.7,11.7,176.9,11z"/>
		<path id="XMLID_289_" class="st1" d="M323.3,13.5c2.1-0.1,2.6,1.3,3.4,2.5c0.2,2.1-1.3,2.6-2.5,3.4c-2.1,0.2-2.6-1.3-3.4-2.5
			C320.6,14.8,322.1,14.3,323.3,13.5z"/>
		<path id="XMLID_288_" class="st1" d="M155.9,16.9c3.7,5.7,8.6,13.9,6.7,20.3c-7.7-0.7-6.3-10.6-10.1-15.2
			C152.4,19,155.4,19.2,155.9,16.9z"/>
		<path id="XMLID_287_" class="st1" d="M349.4,20.3c-2.6,6.6-1.8,16.8-11.8,16.1C340.7,30.7,342,18.8,349.4,20.3z"/>
		<path id="XMLID_286_" class="st1" d="M367,29.6c2.1-0.2,2.6,1.3,3.4,2.5c0.1,2.1-1.3,2.6-2.5,3.4c-2.1,0.1-2.6-1.3-3.4-2.5
			C364.4,30.9,365.8,30.3,367,29.6z"/>
		<path id="XMLID_285_" class="st1" d="M131.5,30.4c2.1-0.1,2.6,1.3,3.4,2.5c0.1,2.1-1.3,2.6-2.5,3.4c-2.1,0.1-2.6-1.3-3.4-2.5
			C128.8,31.7,130.2,31.2,131.5,30.4z"/>
		<path id="XMLID_284_" class="st1" d="M227.4,33c2.1-0.1,2.6,1.3,3.4,2.5c0.1,2.1-1.3,2.6-2.5,3.4c-2.1,0.1-2.6-1.3-3.4-2.5
			C224.7,34.2,226.2,33.7,227.4,33z"/>
		<path id="XMLID_283_" class="st1" d="M269.4,33.8c2.1-0.1,2.6,1.3,3.4,2.5c0.1,2.1-1.3,2.6-2.5,3.4c-2.1,0.1-2.6-1.3-3.4-2.5
			C266.8,35.1,268.2,34.5,269.4,33.8z"/>
		<path id="XMLID_282_" class="st1" d="M314.9,35.5c2.1-0.1,2.6,1.3,3.4,2.5c0.1,2.1-1.3,2.6-2.5,3.4c-2.1,0.1-2.6-1.3-3.4-2.5
			C312.2,36.8,313.6,36.2,314.9,35.5z"/>
		<path id="XMLID_281_" class="st1" d="M185.3,38.9c2.1-0.1,2.6,1.3,3.4,2.5c0.1,2.1-1.3,2.6-2.5,3.4c-2.1,0.1-2.6-1.3-3.4-2.5
			C182.7,40.1,184.1,39.6,185.3,38.9z"/>
		<path id="XMLID_280_" class="st1" d="M386.4,40.6c2.6-0.4,3.3,1.2,5.1,1.7c-5.8,7.7-8.6,18.4-17.7,22.8c0.3-1.4-0.7-1.6-1.7-1.7
			C375.5,54.4,381.8,48.4,386.4,40.6z"/>
		<path id="XMLID_279_" class="st1" d="M139.9,92.9c-11.3-15.1-22.4-30.4-32-47.3c-0.6-2.3,1.7-1.7,1.7-3.4c0.8,0,1.7,0,2.5,0
			c6.7,11.3,14.7,21.3,21,32.9C136.2,80.3,147.2,87.8,139.9,92.9z"/>
		<path id="XMLID_278_" class="st1" d="M338.4,48.2c-2.7,4.6-1.8,12.8-8.4,13.5C327.1,57.9,331.9,45.1,338.4,48.2z"/>
		<path id="XMLID_277_" class="st1" d="M267.8,49c2.1-0.1,2.6,1.3,3.4,2.5c0.1,2.1-1.3,2.7-2.5,3.4c-2.1,0.2-2.6-1.3-3.4-2.5
			C265.1,50.3,266.5,49.7,267.8,49z"/>
		<path id="XMLID_276_" class="st1" d="M168.5,49.9c1.4-0.2,1.5,0.8,2.5,0.9c4.4,11,9.7,23,14.3,34.6c4.6,11.7,11.2,23.3,10.9,34.6
			c-6.6-2.5-7.7-9.8-10.9-17.7c-2.8-7.1-5.4-14.3-8.4-22c-3.4-8.4-8.5-18-10.9-27.9C168.2,53,167.6,50.6,168.5,49.9z"/>
		<path id="XMLID_275_" class="st1" d="M190.4,53.2c2.1-0.1,2.6,1.3,3.4,2.5c0.1,2.1-1.3,2.6-2.5,3.4c-2.1,0.1-2.6-1.3-3.4-2.5
			C187.7,54.5,189.1,54,190.4,53.2z"/>
		<path id="XMLID_274_" class="st1" d="M144.9,54.9c2.1-0.1,2.6,1.3,3.4,2.5c0.1,2.1-1.3,2.6-2.5,3.4c-2.1,0.1-2.6-1.3-3.4-2.5
			C142.3,56.2,143.7,55.7,144.9,54.9z"/>
		<path id="XMLID_273_" class="st1" d="M404.1,55.8c2.1-0.1,2.6,1.3,3.4,2.5c0.2,2.1-1.3,2.6-2.5,3.4c-2.1,0.1-2.6-1.3-3.4-2.5
			C401.4,57,402.8,56.5,404.1,55.8z"/>
		<path id="XMLID_272_" class="st1" d="M91.9,57.5c2.1-0.1,2.6,1.3,3.4,2.5c0.1,2.1-1.3,2.7-2.5,3.4c-2.1,0.1-2.6-1.3-3.4-2.5
			C89.3,58.7,90.7,58.2,91.9,57.5z"/>
		<path id="XMLID_271_" class="st1" d="M347.7,64.2c2.1-0.1,2.6,1.3,3.4,2.5c0.1,2.1-1.3,2.7-2.5,3.4c-2.1,0.1-2.6-1.3-3.4-2.5
			C345,65.5,346.5,65,347.7,64.2z"/>
		<path id="XMLID_270_" class="st1" d="M229.9,67.6c2.1-0.1,2.6,1.3,3.4,2.5c0.1,2.1-1.3,2.6-2.5,3.4c-2.1,0.2-2.6-1.3-3.4-2.5
			C227.3,68.9,228.7,68.3,229.9,67.6z"/>
		<path id="XMLID_269_" class="st1" d="M153.4,68.4c2.1-0.1,2.6,1.3,3.4,2.5c0.1,2.1-1.3,2.6-2.5,3.4c-2.1,0.1-2.6-1.3-3.4-2.5
			C150.7,69.7,152.1,69.2,153.4,68.4z"/>
		<path id="XMLID_268_" class="st1" d="M392.3,70.1c2.1-0.1,2.6,1.3,3.4,2.5c0.1,2.1-1.3,2.6-2.5,3.4c-2.1,0.1-2.6-1.3-3.4-2.5
			C389.6,71.4,391,70.9,392.3,70.1z"/>
		<path id="XMLID_267_" class="st1" d="M83.5,83.6c-5,1.7-12.8-4.1-10.1-10.1C77.9,72.9,82.4,78.2,83.5,83.6z"/>
		<path id="XMLID_266_" class="st1" d="M426.8,74.3c-1.1,6.4-9.4,11.2-15.1,16.9c-4.9,4.9-10.3,15.7-17.7,11.8
			c7.5-11.9,19.5-19.3,27.8-30.4C423.9,72.8,425.7,73.1,426.8,74.3z"/>
		<path id="XMLID_265_" class="st1" d="M327.5,74.3c-1.5,8.1-6.8,15.5-10.1,23.7c-3,7.3-3,19.5-12.6,21.1
			c3.9-16.4,11.9-28.6,16.8-43.9c1.6-0.1,2.8-0.6,3.4-1.7C325.6,74,326.3,74.4,327.5,74.3z"/>
		<path id="XMLID_264_" class="st1" d="M367.9,76.9c-7.2,12.8-15,25.8-23.6,38c-4.1,5.8-7.7,12.4-11.8,18.6
			c-3.3,5-7.4,14.3-15.1,15.2c0.1-9.2,8.2-15.5,13.5-23.6c3.6-5.5,6.5-11.5,10.1-16.9c7.6-11.5,16-22,22.7-33.8
			C366.1,74.1,366.6,75.9,367.9,76.9z"/>
		<path id="XMLID_263_" class="st1" d="M341.8,76c2.1-0.1,2.7,1.3,3.4,2.5c0.1,2.1-1.3,2.7-2.5,3.4c-2.1,0.1-2.6-1.3-3.4-2.5
			C339.1,77.3,340.6,76.8,341.8,76z"/>
		<path id="XMLID_262_" class="st1" d="M301.4,78.6c2.1-0.1,2.6,1.3,3.4,2.5c0.1,2.1-1.3,2.6-2.5,3.4c-2.1,0.1-2.6-1.3-3.4-2.5
			C298.8,79.8,300.2,79.3,301.4,78.6z"/>
		<path id="XMLID_261_" class="st1" d="M384.7,80.3c2.1-0.1,2.6,1.3,3.4,2.5c0.1,2.1-1.3,2.6-2.5,3.4c-2.1,0.1-2.6-1.3-3.4-2.5
			C382,81.5,383.5,81,384.7,80.3z"/>
		<path id="XMLID_260_" class="st1" d="M248.4,81.1c4.4,1.2,4.3,17.1-2.5,15.2C246,90.5,245,83.6,248.4,81.1z"/>
		<path id="XMLID_259_" class="st1" d="M231.6,82c2.1-0.1,2.6,1.3,3.4,2.5c0.1,2.1-1.3,2.6-2.5,3.4c-2.1,0.1-2.6-1.3-3.4-2.5
			C228.9,83.2,230.4,82.7,231.6,82z"/>
		<path id="XMLID_258_" class="st1" d="M91.9,90.4c4.3,2.4,7.5,6.6,10.1,8.4c-1.3,1.2-2.3,2.8-4.2,3.4c-4.3-1.6-6.4-5.4-8.4-9.3
			C90.3,92.1,91.1,91.3,91.9,90.4z"/>
		<path id="XMLID_257_" class="st1" d="M118.9,91.2c2.1-0.1,2.6,1.3,3.4,2.5c0.1,2.1-1.3,2.6-2.5,3.4c-2.1,0.1-2.6-1.3-3.4-2.5
			C116.2,92.5,117.6,92,118.9,91.2z"/>
		<path id="XMLID_256_" class="st1" d="M438.5,91.2c2.1-0.1,2.6,1.3,3.4,2.5c0.1,2.1-1.3,2.6-2.5,3.4c-2.1,0.1-2.6-1.3-3.4-2.5
			C435.9,92.5,437.3,92,438.5,91.2z"/>
		<path id="XMLID_255_" class="st1" d="M56.6,92.1c2.1-0.1,2.6,1.3,3.4,2.5c0.1,2.1-1.3,2.6-2.5,3.4c-2.1,0.1-2.6-1.3-3.4-2.5
			C53.9,93.4,55.4,92.8,56.6,92.1z"/>
		<path id="XMLID_254_" class="st1" d="M203,94.6c2.1-0.1,2.6,1.3,3.4,2.5c0.1,2.1-1.3,2.6-2.5,3.4c-2.1,0.1-2.6-1.3-3.4-2.5
			C200.3,95.9,201.8,95.4,203,94.6z"/>
		<path id="XMLID_253_" class="st1" d="M262.7,96.3c2.1-0.1,2.6,1.3,3.4,2.5c0.1,2.1-1.3,2.6-2.5,3.4c-2.1,0.1-2.6-1.3-3.4-2.5
			C260.1,97.6,261.5,97,262.7,96.3z"/>
		<path id="XMLID_252_" class="st1" d="M150,100.5c5,2.9,6.3,9.4,10.1,13.5c-1.1,1.4-1.7,3.3-4.2,3.4c-3.4-3.9-5.5-9.1-9.3-12.7
			C146.4,102,147.6,100.7,150,100.5z"/>
		<path id="XMLID_251_" class="st1" d="M126.4,101.4c2.1-0.1,2.6,1.3,3.4,2.5c0.1,2.1-1.3,2.6-2.5,3.4c-2.1,0.2-2.6-1.3-3.4-2.5
			C123.8,102.6,125.2,102.1,126.4,101.4z"/>
		<path id="XMLID_250_" class="st1" d="M221.5,118.3c-2-3-1.5-8.6-3.4-11.8C223.2,95.4,230.1,118.7,221.5,118.3z"/>
		<path id="XMLID_249_" class="st1" d="M247.6,103.4c5.6,3.7,2.3,8.8,2.5,15.2c-2-0.4-1.8,1.5-4.2,0.8
			C246.7,112.9,244.6,108.2,247.6,103.4z"/>
		<path id="XMLID_248_" class="st1" d="M456.2,110.7c-0.4,5.2-6.5,5.9-10.1,8.4c-3.4,2.4-6.7,5.3-10.1,7.6
			c-3.4,2.3-7.4,5.2-10.9,7.6c-3.2,2.2-7,6.6-10.9,3.4c3-6.6,11.4-11.1,17.7-15.2c6.6-4.4,13.5-8.5,19.4-13.5
			C453.3,109.1,455.2,109.5,456.2,110.7z"/>
		<path id="XMLID_247_" class="st1" d="M155,151.2c0.2,3-0.6,5.1-2.5,5.9c-11.9-11.2-22.9-22.5-35.3-33.8c-3.1-2.8-7.8-6.8-7.6-11.8
			c0.7-0.7,2.3-0.5,2.5-1.7C127.2,122.9,139.8,138.4,155,151.2z"/>
		<path id="XMLID_246_" class="st1" d="M324.1,109.8c2.1-0.1,2.6,1.3,3.4,2.5c0.1,2.1-1.3,2.6-2.5,3.4c-2.1,0.1-2.6-1.3-3.4-2.5
			C321.5,111.1,322.9,110.6,324.1,109.8z"/>
		<path id="XMLID_245_" class="st1" d="M388.1,114c-2,6.7-9.1,8.3-11.8,14.4c-2.2-0.3-2.9-2.1-5-2.5
			C374.8,120.4,380.8,110.4,388.1,114z"/>
		<path id="XMLID_244_" class="st1" d="M98.7,151.2c-5.2,2.1-10.6-3.2-15.1-5.9c-14.4-8.7-31.1-18.9-44.6-28.7
			c-0.6-2.3,1.7-1.7,1.7-3.4c0.8,0,1.7,0,2.5,0c13.7,8.8,29.2,18.5,43.7,27.9C90.9,143.6,99,145.1,98.7,151.2z"/>
		<path id="XMLID_243_" class="st1" d="M356.9,114.9c2.1-0.1,2.6,1.3,3.4,2.5c0.1,2.1-1.3,2.6-2.5,3.4c-2.1,0.1-2.6-1.3-3.4-2.5
			C354.3,116.2,355.7,115.6,356.9,114.9z"/>
		<path id="XMLID_242_" class="st1" d="M85.2,115.7c2.1-0.1,2.6,1.3,3.4,2.5c0.1,2.1-1.3,2.6-2.5,3.4c-2.1,0.1-2.6-1.3-3.4-2.5
			C82.5,117,84,116.5,85.2,115.7z"/>
		<path id="XMLID_241_" class="st1" d="M178.6,116.6c2.1-0.1,2.6,1.3,3.4,2.5c0.2,2.1-1.3,2.7-2.5,3.4c-2.1,0.1-2.6-1.3-3.4-2.5
			C175.9,117.8,177.4,117.3,178.6,116.6z"/>
		<path id="XMLID_240_" class="st1" d="M406.6,117.4c2.1-0.1,2.6,1.3,3.4,2.5c0.1,2.1-1.3,2.6-2.5,3.4c-2.1,0.2-2.6-1.3-3.4-2.5
			C403.9,118.7,405.3,118.2,406.6,117.4z"/>
		<path id="XMLID_239_" class="st1" d="M182.8,152.9c-6.1-1.7-8-7.7-10.9-12.7c-2.6-3.6-6.3-6-6.7-11.8c0.7-0.7,2.3-0.5,2.5-1.7
			c0.7,0.4,1.4,0.9,2.5,0.8c1.6,4.4,5.5,8.4,8.4,12.7C181,143.8,185.8,148.7,182.8,152.9z"/>
		<path id="XMLID_238_" class="st1" d="M465.5,128.4c2.1-0.1,2.6,1.3,3.4,2.5c0.1,2.1-1.3,2.6-2.5,3.4c-2.1,0.1-2.6-1.3-3.4-2.5
			C462.8,129.7,464.2,129.1,465.5,128.4z"/>
		<path id="XMLID_237_" class="st1" d="M366.2,133.5c1.3,6.3-5.8,9.3-9.3,12.7c-7.2,7-13.7,13.4-21,21.1c-3,3.1-5.9,10.4-11.8,7.6
			c-1.3-3.7,2.6-6.7,5.1-9.3c6.7-7.1,16.2-14.7,23.6-22c3.8-3.8,5.4-8.8,10.9-11C364.4,133.1,365,133.5,366.2,133.5z"/>
		<path id="XMLID_236_" class="st1" d="M29.7,133.5c2.1-0.1,2.6,1.3,3.3,2.5c0.2,2.1-1.3,2.6-2.5,3.4c-2.1,0.1-2.6-1.3-3.4-2.5
			C27,134.7,28.5,134.2,29.7,133.5z"/>
		<path id="XMLID_235_" class="st1" d="M108.8,134.3c2.1-0.1,2.6,1.3,3.4,2.5c0.1,2.1-1.3,2.6-2.5,3.4c-2.1,0.1-2.6-1.3-3.4-2.5
			C106.1,135.6,107.5,135,108.8,134.3z"/>
		<path id="XMLID_234_" class="st1" d="M377.1,141.1c2.1-0.1,2.6,1.3,3.4,2.5c0.2,2.1-1.3,2.6-2.5,3.4c-2.1,0.1-2.6-1.3-3.4-2.5
			C374.5,142.3,375.9,141.8,377.1,141.1z"/>
		<path id="XMLID_233_" class="st1" d="M44.8,141.9c2.1-0.1,2.6,1.3,3.4,2.5c0.1,2.1-1.3,2.6-2.5,3.4c-2.1,0.1-2.6-1.3-3.4-2.5
			C42.2,143.2,43.6,142.7,44.8,141.9z"/>
		<path id="XMLID_232_" class="st1" d="M118.9,142.8c2.1-0.1,2.6,1.3,3.4,2.5c0.1,2.1-1.3,2.6-2.5,3.4c-2.1,0.1-2.6-1.3-3.4-2.5
			C116.2,144,117.6,143.5,118.9,142.8z"/>
		<path id="XMLID_231_" class="st1" d="M405.7,146.1c-0.3,4.6-5.6,4.9-8.4,6.8c-19.1,12.9-40,30.3-60.6,40.5
			c-3.7-6,5.8-9.7,10.1-12.7c4.7-3.2,9.6-6,14.3-10.1c3.1-2.7,9.4-5.2,13.5-8.4c1-0.8,1.7-2.8,2.5-3.4c0.3-0.2,1.1,1,1.7,0.9
			c2.1-0.6,7.2-5.5,10.1-7.6c4.1-3,8.4-5.3,11.8-8.4c1,0.1,1.5-0.2,1.7-0.8C403.4,144,405.9,143.8,405.7,146.1z"/>
		<path id="XMLID_230_" class="st1" d="M434.3,146.1c2.1-0.2,2.6,1.3,3.4,2.5c0.1,2.1-1.3,2.6-2.5,3.4c-2.1,0.1-2.6-1.3-3.4-2.5
			C431.7,147.4,433.1,146.9,434.3,146.1z"/>
		<path id="XMLID_229_" class="st1" d="M366.2,149.5c2.1-0.2,2.6,1.3,3.4,2.5c0.1,2.1-1.3,2.6-2.5,3.4c-2.1,0.2-2.6-1.3-3.4-2.5
			C363.5,150.8,365,150.3,366.2,149.5z"/>
		<path id="XMLID_228_" class="st1" d="M128.9,150.4c2.1-0.1,2.6,1.3,3.4,2.5c0.1,2.1-1.3,2.7-2.5,3.4c-2.1,0.1-2.6-1.3-3.4-2.5
			C126.3,151.6,127.7,151.1,128.9,150.4z"/>
		<path id="XMLID_227_" class="st1" d="M479.8,154.6c-14,6.8-28.6,12.9-43.7,18.6c-4.3,3.1-11.1,5.1-16.8,7.6
			c-5,2.2-11.6,7.7-16,2.5c3.5-4.1,9.3-5,15.1-7.6c14.5-6.6,30.3-12.9,46.3-20.3C471.2,152.4,476.5,146.5,479.8,154.6z"/>
		<path id="XMLID_226_" class="st1" d="M167.7,151.2c2.1-0.1,2.6,1.3,3.4,2.5c0.1,2.1-1.3,2.6-2.5,3.4c-2.1,0.1-2.6-1.3-3.4-2.5
			C165,152.5,166.4,152,167.7,151.2z"/>
		<path id="XMLID_225_" class="st1" d="M19.6,153.7c6.9-0.2,8.9,4.6,15.1,5.1c0.6,2.6-1.4,2.5-0.8,5.1c-5.9-1.4-11.6-3-16-5.9
			C18.8,156.9,18.7,154.8,19.6,153.7z"/>
		<path id="XMLID_224_" class="st1" d="M110.4,156.3c4.2,2,9.8,2.5,10.1,8.5c-5,2.5-7.8-2.3-11.8-3.4
			C109,159.4,109.8,157.9,110.4,156.3z"/>
		<path id="XMLID_223_" class="st1" d="M75.1,157.1c2.1-0.2,2.6,1.3,3.4,2.5c0.1,2.1-1.3,2.6-2.5,3.4c-2.1,0.1-2.6-1.3-3.4-2.5
			C72.4,158.4,73.9,157.9,75.1,157.1z"/>
		<path id="XMLID_222_" class="st1" d="M60.8,170.6c-1.4,6.7-10.8,0.5-13.5-1.7c0-0.8,0-1.7,0-2.5C52.3,164.2,58,167.9,60.8,170.6z"
			/>
		<path id="XMLID_221_" class="st1" d="M176.1,174.9c0.7,2.7-2.2,1.7-2.5,3.4c-3.5-2.7-7.2-5.2-8.4-10.1c0.9-0.2,0.6-1.7,1.7-1.7
			C169.8,165.6,175.8,172.9,176.1,174.9z"/>
		<path id="XMLID_220_" class="st1" d="M342.6,168.9c2.1-0.1,2.6,1.3,3.4,2.5c0.1,2.1-1.3,2.6-2.5,3.4c-2.1,0.1-2.6-1.3-3.4-2.5
			C340,170.2,341.4,169.7,342.6,168.9z"/>
		<path id="XMLID_219_" class="st1" d="M161.8,190.1c-4.7,4.5-7.4-4.1-13.5-3.4c-3.3-6.8-15.1-5.2-16-14.4c0.5-1.2,3.2-0.1,3.4-1.7
			c0.7-0.2,0.8,0.3,0.8,0.8c4.7,3.8,11,6,16,9.3C156,183.1,160.2,186.1,161.8,190.1z"/>
		<path id="XMLID_218_" class="st1" d="M390.6,170.6c2.1-0.1,2.6,1.3,3.4,2.5c0.1,2.1-1.3,2.6-2.5,3.4c-2.1,0.1-2.6-1.3-3.4-2.5
			C387.9,171.9,389.4,171.4,390.6,170.6z"/>
		<path id="XMLID_217_" class="st1" d="M12.9,175.7c2.1-0.1,2.6,1.3,3.4,2.5c0.1,2.1-1.3,2.7-2.5,3.4c-2.1,0.1-2.6-1.3-3.4-2.5
			C10.2,177,11.6,176.4,12.9,175.7z"/>
		<path id="XMLID_216_" class="st1" d="M149.2,207c-2.6,2.2-10.2-0.3-16-2.5c-5.1-2-10.7-4.6-16-6.8c-10.9-4.4-22.6-8.7-32-13.5
			c-4.7-0.1-7.8-1.7-10.1-4.2c0.5-0.7,0.9-1.4,0.8-2.5c0.7-0.2,0.8-0.8,1.7-0.8c22.6,7.2,43.3,16.2,64.8,24.5
			C144.6,203.1,150.3,201.6,149.2,207z"/>
		<path id="XMLID_215_" class="st1" d="M119.7,177.4c2.1-0.1,2.6,1.3,3.4,2.5c0.1,2.1-1.3,2.7-2.5,3.4c-2.1,0.1-2.6-1.3-3.4-2.5
			C117,178.7,118.5,178.1,119.7,177.4z"/>
		<path id="XMLID_214_" class="st1" d="M482.3,177.4c2.1-0.1,2.6,1.3,3.4,2.5c0.1,2.1-1.3,2.7-2.5,3.4c-2.1,0.1-2.6-1.3-3.4-2.5
			C479.6,178.7,481.1,178.1,482.3,177.4z"/>
		<path id="XMLID_213_" class="st1" d="M466.3,181.6c2.1-0.1,2.6,1.3,3.4,2.5c0.1,2.1-1.3,2.6-2.5,3.4c-2.1,0.2-2.6-1.3-3.4-2.5
			C463.6,182.9,465.1,182.3,466.3,181.6z"/>
		<path id="XMLID_212_" class="st1" d="M451.2,185.8c2.1-0.1,2.6,1.3,3.4,2.5c0.1,2.1-1.3,2.6-2.5,3.4c-2.1,0.1-2.6-1.3-3.4-2.5
			C448.5,187.1,449.9,186.6,451.2,185.8z"/>
		<path id="XMLID_211_" class="st1" d="M48.2,187.5c2.1-0.1,2.6,1.3,3.4,2.5c0.1,2.1-1.3,2.6-2.5,3.4c-2.1,0.1-2.6-1.3-3.4-2.5
			C45.5,188.8,47,188.3,48.2,187.5z"/>
		<path id="XMLID_210_" class="st1" d="M391.4,190.9c-1.7,4.7-7.4,5.6-12.6,6.8c-0.8-1.5-2.4-2.1-1.7-5.1
			C382.7,191.7,387.4,186.3,391.4,190.9z"/>
		<path id="XMLID_209_" class="st1" d="M62.5,191.8c2.1-0.1,2.6,1.3,3.4,2.5c0.1,2.1-1.3,2.6-2.5,3.4c-2.1,0.1-2.6-1.3-3.4-2.5
			C59.8,193,61.3,192.5,62.5,191.8z"/>
		<path id="XMLID_208_" class="st1" d="M113,218.8c-1.5,9.4-13.8,2.8-19.4,1.7c-21.1-4.1-40.5-6.1-62.3-10.1
			c-9.5-1.8-19.1-2.6-26.9-5.9c-1.6-1.6,0.5-1.5,0-4.2C36,204.5,78,212.4,113,218.8z"/>
		<path id="XMLID_207_" class="st1" d="M365.4,204.4c-5.8,0.9-13,8.6-18.5,4.2c1.6-5.9,9.9-5.3,14.3-8.4
			C364.5,199.7,364.9,202.1,365.4,204.4z"/>
		<path id="XMLID_206_" class="st1" d="M97,201c2.1-0.1,2.6,1.3,3.4,2.5c0.1,2.1-1.3,2.6-2.5,3.4c-2.1,0.1-2.6-1.3-3.4-2.5
			C94.3,202.3,95.8,201.8,97,201z"/>
		<path id="XMLID_205_" class="st1" d="M492.4,201.9c0.8,1.1,0.8,3.1,2.5,3.4c-2.7,3.5-9.8,2.6-14.3,4.2c-0.7-1.8-2.2-2.9-1.7-5.9
			C485.4,203.7,486,202.4,492.4,201.9z"/>
		<path id="XMLID_204_" class="st1" d="M394.8,202.7c2.1-0.1,2.6,1.3,3.4,2.5c0.1,2.1-1.3,2.6-2.5,3.4c-2.1,0.2-2.6-1.3-3.4-2.5
			C392.1,204,393.6,203.5,394.8,202.7z"/>
		<path id="XMLID_203_" class="st1" d="M462.1,209.5c-0.6,0.7-1.3,2.3,0,2.5c-5,1.5-15.2,5.6-20.2,1.7c-0.7-3.3,4-2.6,6.7-3.4
			C452.9,209.1,458,206.2,462.1,209.5z"/>
		<path id="XMLID_202_" class="st1" d="M424.2,217.9c-9.8,5.1-25.3,6.1-38.7,8.4c-6.7,1.2-13.4,3.1-19.3,4.2
			c-4.8,0.9-11,2.9-13.5-0.8c0-4.6,6.5-2.9,8.4-3.4c7.4-1.8,17.5-4.3,25.2-5.9c8.9-1.9,18.6-3.6,26.9-4.2
			C416.9,216,421.3,213.6,424.2,217.9z"/>
		<path id="XMLID_201_" class="st1" d="M143.3,223c1.4,1.5-0.7,4.3-0.8,6.8c-4.3-1.9-10.8-1.6-15.1-3.4
			C127.4,217.5,136.6,224.2,143.3,223z"/>
		<path id="XMLID_200_" class="st1" d="M3.6,224.7c2.1-0.1,2.6,1.3,3.4,2.5c0.1,2.1-1.3,2.6-2.5,3.4c-2.1,0.1-2.6-1.3-3.4-2.5
			C0.9,225.9,2.4,225.4,3.6,224.7z"/>
		<path id="XMLID_199_" class="st1" d="M492.4,224.7c2.1-0.1,2.6,1.3,3.4,2.5c0.1,2.1-1.3,2.6-2.5,3.4c-2.1,0.1-2.6-1.3-3.4-2.5
			C489.7,225.9,491.2,225.4,492.4,224.7z"/>
		<path id="XMLID_198_" class="st1" d="M44.8,228.1c2.1-0.1,2.6,1.3,3.4,2.5c0.1,2.1-1.3,2.6-2.5,3.4c-2.1,0.1-2.6-1.3-3.4-2.5
			C42.2,229.3,43.6,228.8,44.8,228.1z"/>
		<path id="XMLID_197_" class="st1" d="M60,228.9c2.1-0.1,2.6,1.3,3.4,2.5c0.1,2.1-1.3,2.6-2.5,3.4c-2.1,0.1-2.6-1.3-3.4-2.5
			C57.3,230.2,58.7,229.6,60,228.9z"/>
		<path id="XMLID_196_" class="st1" d="M431,228.9c2.1-0.1,2.6,1.3,3.4,2.5c0.1,2.1-1.3,2.6-2.5,3.4c-2.1,0.1-2.6-1.3-3.4-2.5
			C428.3,230.2,429.7,229.6,431,228.9z"/>
		<path id="XMLID_195_" class="st1" d="M75.9,230.6c2.1-0.1,2.6,1.3,3.4,2.5c0.1,2.1-1.3,2.6-2.5,3.4c-2.1,0.2-2.6-1.3-3.4-2.5
			C73.3,231.9,74.7,231.3,75.9,230.6z"/>
		<path id="XMLID_194_" class="st1" d="M112.1,233.1c2.1-0.1,2.6,1.3,3.4,2.5c0.1,2.1-1.3,2.6-2.5,3.4c-2.1,0.1-2.6-1.3-3.4-2.5
			C109.5,234.4,110.9,233.9,112.1,233.1z"/>
		<path id="XMLID_193_" class="st1" d="M376.3,234.8c2.1-0.2,2.6,1.3,3.4,2.5c0.1,2.1-1.3,2.6-2.5,3.4c-2.1,0.2-2.6-1.3-3.4-2.5
			C373.6,236.1,375.1,235.6,376.3,234.8z"/>
		<path id="XMLID_192_" class="st1" d="M500,250.9c-16,2.9-37,1.9-56.4,1.7c-6-0.1-15.5,2.6-18.5-4.2c28.8-2,44.9,0.4,69-0.8
			C495.8,242.6,500.8,246.1,500,250.9z"/>
		<path id="XMLID_191_" class="st1" d="M87.7,251.7c-5.8,3.1-12.9,1.7-19.3,1.7c-16.5-0.1-36.1,0.8-52.2,0.8
			c-5.7,0-13.3,0.6-16.8-4.2c-0.1-1,0.2-1.5,0.8-1.7c0.7-0.2,0.8-0.8,1.7-0.8c18.7,3.7,51.4-2.5,78.2,0.8
			C83.2,248.7,86.5,247.6,87.7,251.7z"/>
		<path id="XMLID_190_" class="st1" d="M120.5,250.9c-2.5,4.8-21.7,3.7-18.5-2.5C109.2,247.4,117.4,246,120.5,250.9z"/>
		<path id="XMLID_189_" class="st1" d="M145.4,252.6c-5,1.4-15.1,2-16.8-2.5C133.7,247.1,143.4,245.7,145.4,252.6z"/>
		<path id="XMLID_188_" class="st1" d="M409.1,250c-2.3,3.7-8.9,3.3-12.6,3.4c-5.9,0.1-12.1-0.2-18.5,0c-9.7,0.3-20,0.9-26.1-2.5
			c-1-1.1-0.3-1.3,0-2.5c0.7-0.2,0.8-0.8,1.7-0.8c9.1,0,19.6,0,29.4,0C392.9,247.5,402.6,245.8,409.1,250z"/>
		<path id="XMLID_187_" class="st1" d="M383.9,261.8c2.1-0.1,2.6,1.3,3.4,2.5c0.1,2.1-1.3,2.6-2.5,3.4c-2.1,0.1-2.6-1.3-3.4-2.5
			C381.2,263.1,382.6,262.6,383.9,261.8z"/>
		<path id="XMLID_186_" class="st1" d="M77.6,265.2c2.1-0.1,2.6,1.3,3.4,2.5c0.2,2.1-1.3,2.6-2.5,3.4c-2.1,0.1-2.6-1.3-3.4-2.5
			C75,266.5,76.4,266,77.6,265.2z"/>
		<path id="XMLID_185_" class="st1" d="M438.5,266.9c2.1-0.2,2.6,1.3,3.4,2.5c0.1,2.1-1.3,2.6-2.5,3.4c-2.1,0.1-2.6-1.3-3.4-2.5
			C435.9,268.2,437.3,267.7,438.5,266.9z"/>
		<path id="XMLID_184_" class="st1" d="M141.6,272c-3,3.7-10.7,3.4-18.5,5.1c-16.9,3.6-31.5,9.3-50.5,11c-2.5,0.2-7.3,3.7-6.7-2.5
			c1-2.8,4.8-2.2,6.7-2.5c10.7-2.1,24-5.4,34.5-7.6c9.2-1.9,20.3-4.2,31.1-7.6C140.6,267.9,141.8,269.2,141.6,272z"/>
		<path id="XMLID_183_" class="st1" d="M455.4,268.6c2.1-0.2,2.6,1.3,3.4,2.5c0.1,2.1-1.3,2.6-2.5,3.4c-2.1,0.1-2.6-1.3-3.4-2.5
			C452.7,269.9,454.1,269.3,455.4,268.6z"/>
		<path id="XMLID_182_" class="st1" d="M375.5,277.1c-5.9,0.2-18.6,0.2-21.9-5.1c-0.1-1,0.2-1.5,0.8-1.7
			C359.6,269.6,373.1,270,375.5,277.1z"/>
		<path id="XMLID_181_" class="st1" d="M31.4,270.3c2.1-0.1,2.6,1.3,3.4,2.5c0.1,2.1-1.3,2.7-2.5,3.4c-2.1,0.1-2.6-1.3-3.4-2.5
			C28.7,271.6,30.1,271,31.4,270.3z"/>
		<path id="XMLID_180_" class="st1" d="M17.1,272c2.1-0.1,2.6,1.3,3.4,2.5c0.1,2.1-1.3,2.6-2.5,3.4c-2.1,0.1-2.6-1.3-3.4-2.5
			C14.4,273.2,15.8,272.7,17.1,272z"/>
		<path id="XMLID_179_" class="st1" d="M492.4,272.8c2.1-0.1,2.6,1.3,3.4,2.5c0.1,2.1-1.3,2.6-2.5,3.4c-2.1,0.1-2.6-1.3-3.4-2.5
			C489.7,274.1,491.2,273.6,492.4,272.8z"/>
		<path id="XMLID_178_" class="st1" d="M3.6,273.7c2.1-0.1,2.6,1.3,3.4,2.5c0.1,2.1-1.3,2.6-2.5,3.4c-2.1,0.1-2.6-1.3-3.4-2.5
			C0.9,274.9,2.4,274.4,3.6,273.7z"/>
		<path id="XMLID_177_" class="st1" d="M492.4,301.6c-9-0.7-19.6-3.6-31.1-5.9c-5.9-1.2-12.9-0.9-18.5-2.5c-2.1-0.6-3.2-2.2-5.1-2.5
			c-16.7-3.4-34.1-4.2-48-10.1c0-0.8,0-1.7,0-2.5c0.7-0.2,0.8-0.8,1.7-0.8c24.2,3.2,53.6,10.1,79.9,15.2c4.1,0.8,9.3,1.5,13.5,2.5
			C487.9,295.6,494,295.8,492.4,301.6z"/>
		<path id="XMLID_176_" class="st1" d="M115.5,285.5c2.1-0.1,2.6,1.3,3.4,2.5c0.1,2.1-1.3,2.6-2.5,3.4c-2.1,0.1-2.6-1.3-3.4-2.5
			C112.8,286.8,114.3,286.2,115.5,285.5z"/>
		<path id="XMLID_175_" class="st1" d="M146.6,290.6c-1.7,4.1-7.3,6-10.9,7.6C111,308.8,85,319.4,59.1,330.3
			c-3.2,1.3-7.9,6.1-11.8,2.5c0.5-5.1,6.9-5.4,10.1-6.7c25.9-10.9,51.5-23.6,80.8-34.6c0.8-2.3,4.5-1.7,5.9-3.4
			C146,287.8,145,290.5,146.6,290.6z"/>
		<path id="XMLID_174_" class="st1" d="M47.3,293.9c-4.2,1.4-8.5,2.7-13.5,3.4c-1.5-0.5,0.1-4-1.7-4.2
			C35.7,291.7,48.3,284.6,47.3,293.9z"/>
		<path id="XMLID_173_" class="st1" d="M447.8,333.6c-5.7,3-12.4-2-17.7-4.2c-16.6-7.1-36.2-14.5-52.2-22.8c-5.5-0.2-11-3.8-16-5.9
			c-5-2.1-12-2.9-12.6-7.6c-0.1-1,0.2-1.5,0.8-1.7c0.7-0.2,0.8-0.9,1.7-0.8c7.7,3.4,18.1,7,26.9,11c9.2,4.1,22.7,10.1,32.8,14.3
			c10.2,4.3,20.9,7.6,31.1,12.7C444.8,329.6,449.3,329.4,447.8,333.6z"/>
		<path id="XMLID_172_" class="st1" d="M21.3,294.8c-0.7,3.1,1.5,4.5,0,5.9c-7.2,0.1-8.4,2.4-14.3,2.5c-0.7-1.8-2.6-2.5-2.5-5.1
			C9.5,296.2,15.1,295.5,21.3,294.8z"/>
		<path id="XMLID_171_" class="st1" d="M69.2,300.7c2.1-0.2,2.6,1.3,3.4,2.5c0.1,2.1-1.3,2.6-2.5,3.4c-2.1,0.1-2.6-1.3-3.4-2.5
			C66.6,302,68,301.4,69.2,300.7z"/>
		<path id="XMLID_170_" class="st1" d="M58.3,304.9c2.1-0.1,2.6,1.3,3.4,2.5c0.1,2.1-1.3,2.6-2.5,3.4c-2.1,0.2-2.6-1.3-3.4-2.5
			C55.6,306.2,57.1,305.7,58.3,304.9z"/>
		<path id="XMLID_169_" class="st1" d="M438.5,305.8c2.1-0.1,2.6,1.3,3.4,2.5c0.1,2.1-1.3,2.7-2.5,3.4c-2.1,0.2-2.6-1.3-3.4-2.5
			C435.9,307,437.3,306.5,438.5,305.8z"/>
		<path id="XMLID_168_" class="st1" d="M154.2,310c-0.1,1,0.2,1.5,0.8,1.7c-2.5,5.9-8.2,8.6-14.3,11c-0.4-0.8-0.7-1.5-1.7-1.7
			C142.3,313.8,146.6,311.5,154.2,310z"/>
		<path id="XMLID_167_" class="st1" d="M361.1,310c2.1-0.1,2.6,1.3,3.4,2.5c0.1,2.1-1.3,2.6-2.5,3.4c-2.1,0.2-2.6-1.3-3.4-2.5
			C358.5,311.2,359.9,310.7,361.1,310z"/>
		<path id="XMLID_166_" class="st1" d="M397.3,351.4c-4.7,2.9-9.3-3.1-13.5-5.9c-4.8-3.1-10.6-5.2-13.5-9.3c-3-0.1-3.8-2.4-6.7-2.5
			c0-1.7-2.3-1.1-1.7-3.4c-9.5-4-18.8-8.1-24.4-16.1c0.8,0,0.7-1,0.8-1.7c9.6,0.7,13.7,8.8,23.6,11.8c7.8,7.9,17.2,11.7,27.8,18.6
			C392.5,344.7,397.8,346.7,397.3,351.4z"/>
		<path id="XMLID_165_" class="st1" d="M28,315.1c2.1-0.1,2.6,1.3,3.4,2.5c0.1,2.1-1.3,2.7-2.5,3.4c-2.1,0.2-2.6-1.3-3.4-2.5
			C25.3,316.3,26.8,315.8,28,315.1z"/>
		<path id="XMLID_164_" class="st1" d="M372.1,315.9c2.1-0.2,2.6,1.3,3.4,2.5c0.1,2.1-1.3,2.7-2.5,3.4c-2.1,0.2-2.6-1.3-3.4-2.5
			C369.4,317.2,370.9,316.6,372.1,315.9z"/>
		<path id="XMLID_163_" class="st1" d="M13.7,320.1c2.1-0.1,2.6,1.3,3.4,2.5c0.1,2.1-1.3,2.6-2.5,3.4c-2.1,0.1-2.6-1.3-3.4-2.5
			C11,321.4,12.5,320.9,13.7,320.1z"/>
		<path id="XMLID_162_" class="st1" d="M482.3,320.1c2.1-0.1,2.6,1.3,3.4,2.5c0.1,2.1-1.3,2.6-2.5,3.4c-2.1,0.1-2.6-1.3-3.4-2.5
			C479.6,321.4,481.1,320.9,482.3,320.1z"/>
		<path id="XMLID_161_" class="st1" d="M166,326c2.7-0.4,0.6,3.9,2.5,4.2c-13.3,13.7-23.9,30-39.5,41.4c-4-5.2,3.2-8.9,5.9-11.8
			c9.2-10,19.6-22.6,29.4-32.1C164.5,326.8,166,327.1,166,326z"/>
		<path id="XMLID_160_" class="st1" d="M125.6,326.9c2.1,0.7,3.7,2,3.4,5.1c-4,2.2-7.1,5.3-11.8,6.8
			C113.9,331.8,123.3,330.9,125.6,326.9z"/>
		<path id="XMLID_159_" class="st1" d="M323.3,328.6c5.1,2.5,9.8,5.3,11.8,11c-1.1,0.8-1.7,2.3-3.4,2.5
			C328.1,338.7,321.1,335.1,323.3,328.6z"/>
		<path id="XMLID_158_" class="st1" d="M143.3,330.3c2.1-0.1,2.6,1.3,3.4,2.5c0.1,2.1-1.3,2.6-2.5,3.4c-2.1,0.1-2.6-1.3-3.4-2.5
			C140.6,331.5,142,331,143.3,330.3z"/>
		<path id="XMLID_157_" class="st1" d="M82.7,335.3c2.1-0.1,2.6,1.3,3.4,2.5c0.1,2.1-1.3,2.6-2.5,3.4c-2.1,0.1-2.6-1.3-3.4-2.5
			C80,336.6,81.4,336.1,82.7,335.3z"/>
		<path id="XMLID_156_" class="st1" d="M464.6,337c4,3.9,12,3.7,16,7.6c-3.8,8.5-10.8-0.4-18.5-1.7
			C461.6,339.7,464.3,339.5,464.6,337z"/>
		<path id="XMLID_155_" class="st1" d="M33.9,337.9c0,7-6.3,6.2-11.8,9.3c-1.5-1.4-2.1-3.5-1.7-6.8
			C24.8,339.4,28.1,337.3,33.9,337.9z"/>
		<path id="XMLID_154_" class="st1" d="M182.8,339.6c1.7,0.6,1.9,2.6,3.4,3.4c-2.2,4.5-3.6,9.9-8.4,11.8
			C173.5,349.5,180.8,343.8,182.8,339.6z"/>
		<path id="XMLID_153_" class="st1" d="M420,340.4c2.1-0.1,2.6,1.3,3.4,2.5c0.1,2.1-1.3,2.6-2.5,3.4c-2.1,0.1-2.6-1.3-3.4-2.5
			C417.4,341.7,418.8,341.1,420,340.4z"/>
		<path id="XMLID_152_" class="st1" d="M107.1,345.5c-4.2,6.8-12,9.3-18.5,13.5c-7.7,5-15,11.4-22.7,16.9c-3.7,2.6-7.9,4.9-11.8,7.6
			c-3.4,2.3-6.8,7.8-11.8,5.9c-0.4-7.4,7.5-8.9,11.8-11.8c4.4-3.1,8.4-7.4,13.5-9.3c11.1-9.2,23.8-16.6,35.3-25.3
			C104.8,343.2,106.5,343.8,107.1,345.5z"/>
		<path id="XMLID_151_" class="st1" d="M310.7,343.8c5.9,4.7,9,12.9,13.5,19.4c4.3,6.3,10.9,11.6,11.8,18.6
			c-4.5,2.8-7.3-2.5-8.4-5.9c-5-4.6-6.7-12.5-12.6-16c-0.5-6.2-6.1-7.4-7.6-12.7C307.4,345,308.5,343.9,310.7,343.8z"/>
		<path id="XMLID_150_" class="st1" d="M363.7,345.5c2.1-0.1,2.6,1.3,3.4,2.5c0.1,2.1-1.3,2.6-2.5,3.4c-2.1,0.1-2.6-1.3-3.4-2.5
			C361,346.7,362.4,346.2,363.7,345.5z"/>
		<path id="XMLID_149_" class="st1" d="M383,389.4c-7.5,1.8-10.3-6.9-14.3-11c-7.7-7.8-17.2-15.1-24.4-22.8
			c-0.5-2.7,0.2-4.3,1.7-5.1c0.8,0,1.7,0,2.5,0c8.7,9.2,18.2,19.3,27.8,28.7C379,381.9,384.9,384.5,383,389.4z"/>
		<path id="XMLID_148_" class="st1" d="M330,351.4c2.1-0.1,2.6,1.3,3.4,2.5c0.1,2.1-1.3,2.6-2.5,3.4c-2.1,0.1-2.6-1.3-3.4-2.5
			C327.4,352.6,328.8,352.1,330,351.4z"/>
		<path id="XMLID_147_" class="st1" d="M203.8,353.1c1.4-0.2,1.4,0.8,2.5,0.8c-0.9,10.8-9.6,29.3-15.1,44.8
			c-5.1,14.2-9.5,28.6-14.3,41.4c-8.6-1.7-2.8-8.2-0.8-13.5c3.1-8.4,6.7-18,10.1-27C192.3,383,196.3,364.4,203.8,353.1z"/>
		<path id="XMLID_146_" class="st1" d="M312.4,415.6c-3.1-1.7-4.5-6.1-5.9-9.3c-5.1-12.2-10.9-26.5-16.8-38.9
			c-1.2-2.5-2.2-6.4-5-7.6c0.3-2.2,2.5-2.6,2.5-5.1c3.1,0,3.8,2.4,5.9,3.4c-0.1,2.1-0.1,4,0.8,5.1c5.5,11.7,12.7,26.3,18.5,39.7
			C313.7,406.1,318.9,413.8,312.4,415.6z"/>
		<path id="XMLID_145_" class="st1" d="M46.5,355.6c2.1-0.2,2.6,1.3,3.4,2.5c0.1,2.1-1.3,2.6-2.5,3.4c-2.1,0.1-2.6-1.3-3.4-2.5
			C43.8,356.8,45.3,356.3,46.5,355.6z"/>
		<path id="XMLID_144_" class="st1" d="M408.3,355.6c4.3,2.1,9.1,3.8,10.9,8.4c-1,0.1-0.7,1.5-0.8,2.5c-6-0.2-8.8-3.6-11.8-6.8
			C405.9,357.1,407.9,357.2,408.3,355.6z"/>
		<path id="XMLID_143_" class="st1" d="M269.4,367.4c2.1-5.6,1.6,2.3,2.5,5.1c-1.8,0.8-2.5,2.6-5.1,2.5c-1.3-4.3-1.8-9.4-2.5-14.3
			c0.5-1.2,3.2-0.1,3.4-1.7C270.7,360.5,270.2,364.1,269.4,367.4z"/>
		<path id="XMLID_142_" class="st1" d="M226.5,360.7c0.7,19.1-5.3,38.5-7.6,57.4c-9.1-4.1-2.1-17-0.8-25.3c1.5-10.2,2-20.7,4.2-29.6
			c0.3-1.1,1.5-1.3,1.7-2.5C224.9,360.7,225.7,360.7,226.5,360.7z"/>
		<path id="XMLID_141_" class="st1" d="M246.7,360.7c1-0.2,1.5,0.2,1.7,0.8c-0.1,16.9,0.1,37.3,0,55.7c0,5.3,2,12.9-3.4,15.2
			c-4.8-4.5-1.7-13.1-1.7-18.6c0-17.9-0.8-29.4,0-49.8C244.1,362.5,246.5,362.6,246.7,360.7z"/>
		<path id="XMLID_140_" class="st1" d="M31.4,364c2.1-0.1,2.6,1.3,3.4,2.5c0.1,2.1-1.3,2.6-2.5,3.4c-2.1,0.1-2.6-1.3-3.4-2.5
			C28.7,365.3,30.1,364.8,31.4,364z"/>
		<path id="XMLID_139_" class="st1" d="M170.2,365.7c1,9.1-7.1,16.1-11.8,23.6c-2.4,3.8-4.4,8.1-6.7,11.8c-2.4,4-3.7,8.1-5.9,11.8
			c-1.5,2.4-4.3,4.1-5.9,6.8c-2.8,4.5-4.7,14.6-11,14.4c-1.2-6.7,4.5-11.7,7.6-16.9c9.8-16.7,19.5-34.3,29.4-51.5
			C167.4,365.7,168.8,365.7,170.2,365.7z"/>
		<path id="XMLID_138_" class="st1" d="M465.5,365.7c2.1-0.2,2.6,1.3,3.4,2.5c0.1,2.1-1.3,2.6-2.5,3.4c-2.1,0.1-2.6-1.3-3.4-2.5
			C462.8,367,464.2,366.5,465.5,365.7z"/>
		<path id="XMLID_137_" class="st1" d="M99.5,370.8c2.1-0.2,2.6,1.3,3.4,2.5c0.1,2.1-1.3,2.6-2.5,3.4c-2.1,0.1-2.6-1.3-3.4-2.5
			C96.8,372.1,98.3,371.5,99.5,370.8z"/>
		<path id="XMLID_136_" class="st1" d="M118,376.7c2.5,0,3.5,1.5,4.2,3.4c-2,3.9-3.3,8.6-9.2,8.4C110.5,381.9,116.7,381.7,118,376.7
			z"/>
		<path id="XMLID_135_" class="st1" d="M233.3,376.7c2.1-0.1,2.6,1.3,3.4,2.5c0.1,2.1-1.3,2.6-2.5,3.4c-2.1,0.1-2.6-1.3-3.4-2.5
			C230.6,378,232,377.4,233.3,376.7z"/>
		<path id="XMLID_134_" class="st1" d="M282.9,376.7c2.1-0.1,2.6,1.3,3.4,2.5c0.2,2.1-1.3,2.6-2.5,3.4c-2.1,0.1-2.6-1.3-3.4-2.5
			C280.2,378,281.7,377.4,282.9,376.7z"/>
		<path id="XMLID_133_" class="st1" d="M315.7,378.4c2.1-0.1,2.6,1.3,3.4,2.5c0.2,2.1-1.3,2.6-2.5,3.4c-2.1,0.1-2.6-1.3-3.4-2.6
			C313,379.6,314.5,379.1,315.7,378.4z"/>
		<path id="XMLID_132_" class="st1" d="M86.9,380.9c2.1-0.2,2.6,1.3,3.4,2.5c0.1,2.1-1.3,2.6-2.5,3.4c-2.1,0.1-2.6-1.3-3.4-2.5
			C84.2,382.2,85.7,381.7,86.9,380.9z"/>
		<path id="XMLID_131_" class="st1" d="M138.2,382.6c2.1-0.2,2.6,1.3,3.4,2.5c0.1,2.1-1.3,2.6-2.5,3.4c-2.1,0.1-2.6-1.3-3.4-2.5
			C135.5,383.9,137,383.3,138.2,382.6z"/>
		<path id="XMLID_130_" class="st1" d="M175.2,386.8c2.1-0.1,2.6,1.3,3.4,2.5c0.1,2.1-1.3,2.6-2.5,3.4c-2.1,0.1-2.6-1.3-3.4-2.5
			C172.6,388.1,174,387.6,175.2,386.8z"/>
		<path id="XMLID_129_" class="st1" d="M294.7,496.6c-3.5-2-5-7.3-5.9-11c-1.2-4.8-1.6-9.8-2.5-14.4c-4.5-23.1-8.3-44.3-13.4-68.4
			c-0.8-3.6-4-8.2-0.8-11.8c1.2,0.1,2.4,0.2,2.5-0.8c0.7,0.4,1.5,0.7,1.7,1.7c1.2,8.3,4.1,18,5.9,27c3.5,17.4,8.2,41,11.8,61.6
			C294.7,485.8,298.1,491.7,294.7,496.6z"/>
		<path id="XMLID_128_" class="st1" d="M413.3,390.2c2.1-0.2,2.6,1.3,3.4,2.5c0.1,2.1-1.3,2.6-2.5,3.4c-2.1,0.1-2.6-1.3-3.4-2.5
			C410.6,391.5,412.1,390.9,413.3,390.2z"/>
		<path id="XMLID_127_" class="st1" d="M387.2,460.3c-6.9-2.6-9-10.5-12.6-16c-3.7-5.6-8.2-10.5-11.8-16c-3.6-5.6-7-11.4-10.9-16.9
			c-3.8-5.3-9.8-10-10.9-16.9c2.6,0.4,1.9-2.6,5-1.7c10.9,16.2,21.8,33.9,33.7,50.7C382.9,448,390.8,453.5,387.2,460.3z"/>
		<path id="XMLID_126_" class="st1" d="M107.1,397c-4.7,6-9.4,11.7-15.1,17.7c-0.8,0.8-12.3,14.4-13.5,14.4
			c-1.1-0.1-3.3-2.7-3.4-4.2c0-2.2,6.6-7.9,9.3-11c5-5.8,13.8-13.4,18.5-20.3C105,394,105.9,395.7,107.1,397z"/>
		<path id="XMLID_125_" class="st1" d="M128.9,394.4c2.1-0.2,2.6,1.3,3.4,2.5c0.1,2.1-1.3,2.6-2.5,3.4c-2.1,0.1-2.6-1.3-3.4-2.5
			C126.3,395.7,127.7,395.2,128.9,394.4z"/>
		<path id="XMLID_124_" class="st1" d="M394.8,397.8c3.2,3.5,8.1,5.4,9.3,11c-0.9,0.8-1.7,1.7-2.5,2.5c-4-2.2-6.2-6.1-9.3-9.3
			C391.9,399.4,394.5,399.8,394.8,397.8z"/>
		<path id="XMLID_123_" class="st1" d="M424.2,397.8c2.1-0.2,2.6,1.3,3.4,2.5c0.2,2.1-1.3,2.7-2.5,3.4c-2.1,0.2-2.6-1.3-3.4-2.5
			C421.6,399.1,423,398.5,424.2,397.8z"/>
		<path id="XMLID_122_" class="st1" d="M59.1,405.4c2.1-0.2,2.6,1.3,3.4,2.5c0.1,2.1-1.3,2.6-2.5,3.4c-2.1,0.2-2.6-1.3-3.4-2.5
			C56.5,406.7,57.9,406.1,59.1,405.4z"/>
		<path id="XMLID_121_" class="st1" d="M436.9,407.1c2.1-0.1,2.6,1.3,3.3,2.5c0.2,2.1-1.3,2.6-2.5,3.4c-2.1,0.1-2.6-1.3-3.4-2.5
			C434.2,408.4,435.6,407.8,436.9,407.1z"/>
		<path id="XMLID_120_" class="st1" d="M201.3,409.6c2.1-0.1,2.6,1.3,3.4,2.5c0.1,2.1-1.3,2.6-2.5,3.4c-2.1,0.1-2.6-1.3-3.4-2.5
			C198.6,410.9,200.1,410.4,201.3,409.6z"/>
		<path id="XMLID_119_" class="st1" d="M261,409.6c2.1-0.1,2.6,1.3,3.4,2.5c0.1,2.1-1.3,2.6-2.5,3.4c-2.1,0.1-2.6-1.3-3.4-2.5
			C258.4,410.9,259.8,410.4,261,409.6z"/>
		<path id="XMLID_118_" class="st1" d="M378.8,412.2c2.1-0.1,2.6,1.3,3.4,2.5c0.1,2.1-1.3,2.6-2.5,3.4c-2.1,0.2-2.6-1.3-3.4-2.5
			C376.1,413.4,377.6,412.9,378.8,412.2z"/>
		<path id="XMLID_117_" class="st1" d="M336.7,417.2c2.1-0.1,2.6,1.3,3.4,2.5c0.1,2.1-1.3,2.6-2.5,3.4c-2.1,0.1-2.6-1.3-3.4-2.5
			C334.1,418.5,335.5,418,336.7,417.2z"/>
		<path id="XMLID_116_" class="st1" d="M415,418.1c3.2,3.5,8.3,5.2,9.2,11c-0.7,0.4-1.5,0.7-1.7,1.7c-5.8-0.6-7.5-5.5-10.1-9.3
			C411.7,418.7,415.2,420.3,415,418.1z"/>
		<path id="XMLID_115_" class="st1" d="M388.1,420.6c2.1-0.1,2.6,1.3,3.4,2.5c0.1,2.1-1.3,2.6-2.5,3.4c-2.1,0.1-2.6-1.3-3.4-2.5
			C385.4,421.9,386.8,421.4,388.1,420.6z"/>
		<path id="XMLID_114_" class="st1" d="M298.1,424c2.1-0.1,2.6,1.3,3.4,2.5c0.1,2.1-1.3,2.7-2.5,3.4c-2.1,0.2-2.6-1.3-3.4-2.6
			C295.4,425.3,296.8,424.7,298.1,424z"/>
		<path id="XMLID_113_" class="st1" d="M229.9,426.5c2.1-0.1,2.6,1.3,3.4,2.5c0.1,2.1-1.3,2.6-2.5,3.4c-2.1,0.1-2.6-1.3-3.4-2.5
			C227.3,427.8,228.7,427.3,229.9,426.5z"/>
		<path id="XMLID_112_" class="st1" d="M319.9,426.5c5.7,1.4,6,8.1,8.4,12.7c-1,1.2-3.2,1.3-4.2,2.5c-2.6-3.8-5.6-7.3-5.9-13.5
			C319.7,428.5,319.8,427.6,319.9,426.5z"/>
		<path id="XMLID_111_" class="st1" d="M343.5,427.4c2.1-0.1,2.6,1.3,3.4,2.6c0.1,2.1-1.3,2.6-2.5,3.4c-2.1,0.1-2.6-1.3-3.4-2.5
			C340.8,428.6,342.3,428.1,343.5,427.4z"/>
		<path id="XMLID_110_" class="st1" d="M104.6,428.2c2.1-0.1,2.6,1.3,3.4,2.5c0.1,2.1-1.3,2.6-2.5,3.4c-2.1,0.1-2.6-1.3-3.4-2.5
			C101.9,429.5,103.3,429,104.6,428.2z"/>
		<path id="XMLID_109_" class="st1" d="M211.4,430.8c2.2,0,4.8-0.3,5.9,0.8c-1.3,3.8-0.6,9.6-2.5,12.7c-1.4,0-2.8,0-4.2,0
			C208.6,439.5,211.3,437,211.4,430.8z"/>
		<path id="XMLID_108_" class="st1" d="M153.4,433.3c2.1-0.1,2.6,1.3,3.4,2.5c0.1,2.1-1.3,2.6-2.5,3.4c-2.1,0.2-2.6-1.3-3.4-2.5
			C150.7,434.6,152.1,434,153.4,433.3z"/>
		<path id="XMLID_107_" class="st1" d="M97,438.4c2.1-0.1,2.6,1.3,3.4,2.5c0.1,2.1-1.3,2.6-2.5,3.4c-2.1,0.1-2.6-1.3-3.4-2.5
			C94.3,439.6,95.8,439.1,97,438.4z"/>
		<path id="XMLID_106_" class="st1" d="M229.1,440.1c2.1-0.2,2.6,1.3,3.4,2.5c0.1,2.1-1.3,2.6-2.5,3.4c-2.1,0.1-2.6-1.3-3.4-2.5
			C226.4,441.3,227.8,440.8,229.1,440.1z"/>
		<path id="XMLID_105_" class="st1" d="M404.9,440.1c2.1-0.2,2.6,1.3,3.4,2.5c0.1,2.1-1.3,2.6-2.5,3.4c-2.1,0.1-2.6-1.3-3.4-2.5
			C402.2,441.3,403.7,440.8,404.9,440.1z"/>
		<path id="XMLID_104_" class="st1" d="M119.7,444.3c2.7-0.7,2.6,1.3,4.2,1.7c-1.5,5.8-2.8,11.8-9.2,12.7
			C112,452.3,118.6,449.5,119.7,444.3z"/>
		<path id="XMLID_103_" class="st1" d="M168.5,445.1c1.8,0.8,3.7,1.3,5,2.5c-0.5,3.7-2.2,6.3-2.5,10.1c-3.7,0.9-3.9-1.8-5.9-2.5
			C166.1,451.7,168,449.2,168.5,445.1z"/>
		<path id="XMLID_102_" class="st1" d="M245,446c4.6,0.4,3.6,9,2.5,12.7c-2.9-0.7-3.5,1.6-5,0C244,455.1,242.2,448.2,245,446z"/>
		<path id="XMLID_101_" class="st1" d="M144.9,447.7c2.1-0.1,2.6,1.3,3.4,2.5c0.1,2.1-1.3,2.6-2.5,3.4c-2.1,0.1-2.6-1.3-3.4-2.5
			C142.3,448.9,143.7,448.4,144.9,447.7z"/>
		<path id="XMLID_100_" class="st1" d="M346.8,481.4c-1.9-0.4-1.2,1.6-2.5,1.7c-5.1-1.7-6.3-8.8-8.4-13.5c-2.3-5-3.7-10.4-6.7-14.4
			c0.3-2,2.6-1.9,3.4-3.4C338.2,457.8,343.5,471.5,346.8,481.4z"/>
		<path id="XMLID_99_" class="st1" d="M189.5,453.6c2.1-0.2,2.6,1.3,3.4,2.5c0.1,2.1-1.3,2.6-2.5,3.4c-2.1,0.1-2.6-1.3-3.4-2.5
			C186.9,454.8,188.3,454.3,189.5,453.6z"/>
		<path id="XMLID_98_" class="st1" d="M265.2,453.6c2.1-0.2,2.6,1.3,3.4,2.5c0.1,2.1-1.3,2.6-2.5,3.4c-2.1,0.1-2.6-1.3-3.4-2.5
			C262.6,454.8,264,454.3,265.2,453.6z"/>
		<path id="XMLID_97_" class="st1" d="M207.2,458.6c2.6-0.6,3.1,0.9,5.1,0.8c0.7,7.6-2.6,15-3.4,21.1c-0.7,5.7,2.1,14.1-5,16.1
			c-4.2-8.5,2.8-23.7,3.4-35.5C205.9,460.8,207.5,460.1,207.2,458.6z"/>
		<path id="XMLID_96_" class="st1" d="M136.5,463.7c2.1-0.1,2.6,1.3,3.4,2.5c0.1,2.1-1.3,2.7-2.5,3.4c-2.1,0.1-2.6-1.3-3.4-2.5
			C133.9,465,135.3,464.4,136.5,463.7z"/>
		<path id="XMLID_95_" class="st1" d="M266.9,464.5c2.1-0.2,2.6,1.3,3.4,2.5c0.1,2.1-1.3,2.6-2.5,3.4c-2.1,0.1-2.6-1.3-3.4-2.5
			C264.3,465.8,265.7,465.3,266.9,464.5z"/>
		<path id="XMLID_94_" class="st1" d="M367,466.2c2.1-0.1,2.6,1.3,3.4,2.5c0.1,2.1-1.3,2.7-2.5,3.4c-2.1,0.1-2.6-1.3-3.4-2.5
			C364.4,467.5,365.8,467,367,466.2z"/>
		<path id="XMLID_93_" class="st1" d="M313.2,467.1c2.1-0.2,2.6,1.3,3.4,2.5c0.2,2.1-1.3,2.6-2.5,3.4c-2.1,0.2-2.6-1.3-3.4-2.5
			C310.5,468.3,312,467.8,313.2,467.1z"/>
		<path id="XMLID_92_" class="st1" d="M160.1,467.9c2,0.3,3.5,1,5.1,1.7c0.8,6.7-2,9.8-4.2,13.5c-1.8-0.8-3.7-1.3-5-2.5
			C157.9,476.9,158.9,472.3,160.1,467.9z"/>
		<path id="XMLID_91_" class="st1" d="M245.9,472.1c1-0.1,1.5,0.2,1.7,0.8c-1.4,7.8,4.1,22.5-3.4,27
			C242,494.1,241.1,479.3,245.9,472.1z"/>
		<path id="XMLID_90_" class="st1" d="M319.9,484.8c2.1-0.1,2.6,1.3,3.4,2.5c0.1,2.1-1.3,2.6-2.5,3.4c-2.1,0.1-2.6-1.3-3.4-2.5
			C317.3,486.1,318.7,485.5,319.9,484.8z"/>
		<path id="XMLID_89_" class="st1" d="M181.1,485.6c2.1-0.1,2.6,1.3,3.4,2.5c0.1,2.1-1.3,2.6-2.5,3.4c-2.1,0.1-2.6-1.3-3.4-2.5
			C178.5,486.9,179.9,486.4,181.1,485.6z"/>
		<path id="XMLID_88_" class="st1" d="M269.4,492.4c2.1-0.1,2.6,1.3,3.4,2.5c0.1,2.1-1.3,2.6-2.5,3.4c-2.1,0.1-2.6-1.3-3.4-2.5
			C266.8,493.7,268.2,493.1,269.4,492.4z"/>
		<path id="XMLID_87_" class="st1" d="M224.9,493.2c2.1-0.1,2.6,1.3,3.4,2.5c0.1,2.1-1.3,2.6-2.5,3.4c-2.1,0.2-2.6-1.3-3.4-2.5
			C222.2,494.5,223.6,494,224.9,493.2z"/>
		<path id="XMLID_86_" class="st1" d="M457.9,390.2c-0.7,0.7-2.3,0.5-2.5,1.7c-9.5-5.4-18.2-11.6-26.9-17.7
			c-0.7-2.7,1.3-2.6,1.7-4.2c7,4.2,15.1,7.4,20.2,13.5C454.3,384.2,458.4,385,457.9,390.2z"/>
		<path id="XMLID_85_" class="st3" d="M158.7,227.2"/>
		<path id="XMLID_84_" class="st3" d="M158.7,227.2"/>
		<pattern  id="XMLID_7_" xlink:href="#New_Pattern_Swatch_3" patternTransform="matrix(1 0 0 1 2 6.88)">
		</pattern>
		<line id="XMLID_83_" class="st4" x1="278.7" y1="214.5" x2="285.7" y2="214.5"/>
		<pattern  id="XMLID_10_" xlink:href="#New_Pattern_Swatch_3" patternTransform="matrix(1 0 0 1 2 6.88)">
		</pattern>
		<line id="XMLID_82_" class="st5" x1="282.2" y1="218" x2="282.2" y2="210.9"/>
		<g id="XMLID_81_">
			<pattern  id="XMLID_11_" xlink:href="#New_Pattern_Swatch_1" patternTransform="matrix(1 0 0 1 1.6796 5.1988)">
			</pattern>
			<path id="XMLID_69_" class="st6" d="M338.8,232c-39.2,0-140.2,0-180,0c0-39.3,38.7-73.8,89.5-73.8
				C301.3,158.3,338.8,189.1,338.8,232z"/>
			<g id="XMLID_60_">
				<pattern  id="XMLID_12_" xlink:href="#New_Pattern_Swatch_9" patternTransform="matrix(1 0 0 1 18.5 60.9893)">
				</pattern>
				<path id="XMLID_66_" class="st7" d="M248.2,159.2L248.2,159.2c25.4,0,48.3,7.4,64.6,20.6c15.9,13,24.8,31.2,25,51.3H159.7
					c0.3-18.7,9.3-36.4,25.4-50C201.8,167,224.2,159.2,248.2,159.2 M248.2,158.3c-50.8,0-89.5,34.5-89.5,73.8c39.9,0,140.8,0,180,0
					C338.8,189.1,301.3,158.3,248.2,158.3L248.2,158.3z"/>
			</g>
		</g>
		<g>
			<g id="XMLID_80_">
				<pattern  id="XMLID_13_" xlink:href="#New_Pattern_Swatch_9" patternTransform="matrix(1 0 0 1 18.5 60.9893)">
				</pattern>
				<path id="XMLID_26_" class="st8" d="M338.1,232.1c0,0-10.8,16.5-37.2,27.3c0,0-28.8-46.4-9.4-46.4
					C325.7,213,338.1,232.1,338.1,232.1z"/>
				<pattern  id="XMLID_16_" xlink:href="#New_Pattern_Swatch_9" patternTransform="matrix(1 0 0 1 18.5 60.9893)">
				</pattern>
				<path id="XMLID_23_" class="st9" d="M291.5,213.9c30.2,0,43.3,15.2,45.5,18.2c-2,2.8-12.9,16.6-35.7,26.2
					c-5.9-9.7-19-34.3-14.7-42C287.4,214.7,289,213.9,291.5,213.9 M291.5,213c-19.4,0,9.4,46.4,9.4,46.4
					c26.5-10.8,37.2-27.3,37.2-27.3S325.7,213,291.5,213L291.5,213z"/>
			</g>
			<g id="XMLID_79_">
				<pattern  id="XMLID_17_" xlink:href="#New_Pattern_Swatch_9" patternTransform="matrix(1 0 0 1 18.5 60.9893)">
				</pattern>
				<path id="XMLID_22_" class="st10" d="M159.4,232.1c0,0,11.6,17.4,38.1,28.2c0,0,27.9-47.3,8.6-47.3
					C171.8,213,159.4,232.1,159.4,232.1z"/>
				<pattern  id="XMLID_18_" xlink:href="#New_Pattern_Swatch_9" patternTransform="matrix(1 0 0 1 18.5 60.9893)">
				</pattern>
				<path id="XMLID_19_" class="st11" d="M206,213.9c2.4,0,4.1,0.8,5,2.4c5.1,8.9-11.1,37.9-13.9,42.8c-22.8-9.6-34.4-24.1-36.5-27
					C162.8,229.1,175.9,213.9,206,213.9 M206,213c-34.2,0-46.6,19.1-46.6,19.1s11.6,17.4,38.1,28.2C197.5,260.2,225.4,213,206,213
					L206,213z"/>
			</g>
		</g>
		<g id="XMLID_78_">
			<rect id="XMLID_53_" x="196.8" y="129.9" class="st12" width="103.8" height="166.4"/>
			<g id="XMLID_37_">
				<pattern  id="XMLID_27_" xlink:href="#New_Pattern_Swatch_9" patternTransform="matrix(1 0 0 1 18.5 60.9893)">
				</pattern>
				<path id="XMLID_41_" class="st13" d="M300,130.6v165.1H197.5V130.6H300 M300.7,129.9H196.8v166.4h103.8V129.9L300.7,129.9z"/>
			</g>
		</g>
		<pattern  id="XMLID_28_" xlink:href="#New_Pattern_Swatch_9" patternTransform="matrix(1 0 0 1 18.5 60.9893)">
		</pattern>
		<pattern  id="XMLID_29_" xlink:href="#New_Pattern_Swatch_9" patternTransform="matrix(1 0 0 1 18.5 60.9893)">
		</pattern>
		<rect id="XMLID_77_" x="212.1" y="144" class="st14" width="73.3" height="62.8"/>
		<pattern  id="XMLID_30_" xlink:href="#New_Pattern_Swatch_9" patternTransform="matrix(1 0 0 1 18.5 60.9893)">
		</pattern>
		<path id="XMLID_76_" class="st15" d="M217.4,214.4c0,1.3-1.1,2.4-2.4,2.4c-1.3,0-2.4-1.1-2.4-2.4c0-1.3,1.1-2.4,2.4-2.4
			C216.3,212,217.4,213.1,217.4,214.4z"/>
		<pattern  id="XMLID_35_" xlink:href="#New_Pattern_Swatch_9" patternTransform="matrix(1 0 0 1 18.5 60.9893)">
		</pattern>
		<path id="XMLID_75_" class="st16" d="M226.1,214.4c0,1.3-1.1,2.4-2.4,2.4c-1.3,0-2.4-1.1-2.4-2.4c0-1.3,1.1-2.4,2.4-2.4
			C225,212,226.1,213.1,226.1,214.4z"/>
		<pattern  id="XMLID_70_" xlink:href="#New_Pattern_Swatch_9" patternTransform="matrix(1 0 0 1 18.5 60.9893)">
		</pattern>
		<path id="XMLID_74_" class="st17" d="M217.4,235.6c0,1.3-1.1,2.4-2.4,2.4c-1.3,0-2.4-1.1-2.4-2.4c0-1.3,1.1-2.4,2.4-2.4
			C216.3,233.3,217.4,234.3,217.4,235.6z"/>
		<pattern  id="XMLID_305_" xlink:href="#New_Pattern_Swatch_9" patternTransform="matrix(1 0 0 1 18.5 60.9893)">
		</pattern>
		<path id="XMLID_73_" class="st18" d="M226.1,235.6c0,1.3-1.1,2.4-2.4,2.4c-1.3,0-2.4-1.1-2.4-2.4c0-1.3,1.1-2.4,2.4-2.4
			C225,233.3,226.1,234.3,226.1,235.6z"/>
		<pattern  id="XMLID_306_" xlink:href="#New_Pattern_Swatch_9" patternTransform="matrix(1 0 0 1 18.5 60.9893)">
		</pattern>
		<path id="XMLID_72_" class="st19" d="M239.3,262.1c0,1.3-1.1,2.4-2.4,2.4c-1.3,0-2.4-1.1-2.4-2.4s1.1-2.4,2.4-2.4
			C238.2,259.7,239.3,260.7,239.3,262.1z"/>
		<pattern  id="XMLID_307_" xlink:href="#New_Pattern_Swatch_9" patternTransform="matrix(1 0 0 1 18.5 60.9893)">
		</pattern>
		<path id="XMLID_65_" class="st20" d="M251.1,262.1c0,1.3-1.1,2.4-2.4,2.4c-1.3,0-2.4-1.1-2.4-2.4s1.1-2.4,2.4-2.4
			C250.1,259.7,251.1,260.7,251.1,262.1z"/>
		<pattern  id="XMLID_308_" xlink:href="#New_Pattern_Swatch_9" patternTransform="matrix(1 0 0 1 18.5 60.9893)">
		</pattern>
		<path id="XMLID_64_" class="st21" d="M262.9,262.1c0,1.3-1.1,2.4-2.4,2.4c-1.3,0-2.4-1.1-2.4-2.4s1.1-2.4,2.4-2.4
			C261.8,259.7,262.9,260.7,262.9,262.1z"/>
		<g>
			<g id="XMLID_50_">
				<pattern  id="XMLID_309_" xlink:href="#New_Pattern_Swatch_9" patternTransform="matrix(1 0 0 1 18.5 60.9893)">
				</pattern>
				<rect id="XMLID_51_" x="236.9" y="214.2" class="st22" width="23.7" height="2.6"/>
			</g>
		</g>
		<g>
			<g id="XMLID_42_">
				<pattern  id="XMLID_310_" xlink:href="#New_Pattern_Swatch_9" patternTransform="matrix(1 0 0 1 18.5 60.9893)">
				</pattern>
				<rect id="XMLID_43_" x="230" y="254.8" class="st23" width="37.5" height="2.6"/>
			</g>
		</g>
		<g>
			<g id="XMLID_39_">
				<pattern  id="XMLID_311_" xlink:href="#New_Pattern_Swatch_9" patternTransform="matrix(1 0 0 1 18.5 60.9893)">
				</pattern>
				<rect id="XMLID_40_" x="239.4" y="268.8" class="st24" width="18.7" height="2.6"/>
			</g>
		</g>
		<g>
			<g id="XMLID_44_">
				<pattern  id="XMLID_312_" xlink:href="#New_Pattern_Swatch_9" patternTransform="matrix(1 0 0 1 18.5 60.9893)">
				</pattern>
				<rect id="XMLID_45_" x="243.3" y="276.5" class="st25" width="10.8" height="1.3"/>
			</g>
		</g>
		<g>
			<g id="XMLID_47_">
				<pattern  id="XMLID_313_" xlink:href="#New_Pattern_Swatch_9" patternTransform="matrix(1 0 0 1 18.5 60.9893)">
				</pattern>
				<rect id="XMLID_48_" x="235.2" y="235.5" class="st26" width="50.4" height="2.6"/>
			</g>
		</g>
		<g>
			<g id="XMLID_57_">
				<pattern  id="XMLID_314_" xlink:href="#New_Pattern_Swatch_9" patternTransform="matrix(1 0 0 1 18.5 60.9893)">
				</pattern>
				<rect id="XMLID_59_" x="212.5" y="244.7" class="st27" width="73.2" height="3.5"/>
			</g>
		</g>
		<g>
			<g id="XMLID_296_">
				<pattern  id="XMLID_315_" xlink:href="#New_Pattern_Swatch_9" patternTransform="matrix(1 0 0 1 18.5 60.9893)">
				</pattern>
				<rect id="XMLID_297_" x="212.6" y="223.9" class="st28" width="73.2" height="3.5"/>
			</g>
		</g>
		<g>
			<g id="XMLID_298_">
				<pattern  id="XMLID_316_" xlink:href="#New_Pattern_Swatch_9" patternTransform="matrix(1 0 0 1 18.5 60.9893)">
				</pattern>
				<rect id="XMLID_304_" x="267" y="214.7" class="st29" width="7" height="1.8"/>
			</g>
		</g>
		<g>
			<g id="XMLID_327_">
				<g id="XMLID_330_">
					<pattern  id="XMLID_317_" xlink:href="#New_Pattern_Swatch_9" patternTransform="matrix(1 0 0 1 18.5 60.9893)">
					</pattern>
					<rect id="XMLID_331_" x="278.6" y="214.7" class="st30" width="7" height="1.8"/>
				</g>
				<g id="XMLID_328_">
					<pattern  id="XMLID_318_" xlink:href="#New_Pattern_Swatch_9" patternTransform="matrix(1 0 0 1 18.5 60.9893)">
					</pattern>
					<rect id="XMLID_329_" x="281.3" y="212" class="st31" width="1.8" height="7.1"/>
				</g>
			</g>
		</g>
		<g id="XMLID_1_">
			<path id="XMLID_303_" class="st32" d="M273.3,257c-0.1,13.6-11,24.5-24.5,24.5c-13.5,0-24.4-10.9-24.5-24.4
				c-29.7,0.1-56.2,0.1-67.1,0.1c0,50.8,41,88.4,91.6,88.4s91.6-37.9,91.6-88.7C329.9,256.9,303.3,256.9,273.3,257z"/>
			<g id="XMLID_299_">
				<pattern  id="XMLID_319_" xlink:href="#New_Pattern_Swatch_9" patternTransform="matrix(1 0 0 1 18.5 60.9893)">
				</pattern>
				<path id="XMLID_300_" class="st33" d="M339.4,257.8c-0.2,23.7-9.6,45.7-26.5,61.8c-16.9,16.2-39.7,25.1-64.1,25.1
					c-24.5,0-47.2-8.8-64.1-24.9c-16.9-16.1-26.3-37.9-26.5-61.6c10.7,0,35.4,0,65.2-0.1c0.6,13.5,11.8,24.4,25.4,24.4
					c13.7,0,24.9-10.9,25.4-24.5l7,0C307,257.9,329.4,257.8,339.4,257.8 M340.3,256.9c-10.5,0-37.1,0.1-67.1,0.1
					c-0.1,13.6-11,24.5-24.5,24.5c-13.5,0-24.4-10.9-24.5-24.4c-29.7,0.1-56.2,0.1-67.1,0.1c0,50.8,41,88.4,91.6,88.4
					S340.3,307.7,340.3,256.9L340.3,256.9z"/>
			</g>
		</g>
	</g>
</g>
</svg>
